HIERARCHY
ROOT Hips
{
	OFFSET 0.000000 0.000000 0.000000 
	CHANNELS 6 Xposition Yposition Zposition Zrotation Yrotation Xrotation
	JOINT LeftUpLeg
	{
		OFFSET 1.363060 -1.794630 0.839290 
		CHANNELS 3 Zrotation Yrotation Xrotation
		JOINT LeftLeg
		{
			OFFSET 2.448110 -6.726130 0.000000 
			CHANNELS 3 Zrotation Yrotation Xrotation
			JOINT LeftFoot
			{
				OFFSET 2.562200 -7.039590 0.000000 
				CHANNELS 3 Zrotation Yrotation Xrotation
				JOINT LeftToeBase
				{
					OFFSET 0.157640 -0.433110 2.322550 
					CHANNELS 3 Zrotation Yrotation Xrotation
					End Site
					{
						OFFSET 0.000000 0.000000 0.000000 
					}
				}
			}
		}
	}
	JOINT RightUpLeg
	{
		OFFSET -1.305520 -1.794630 0.839290 
		CHANNELS 3 Zrotation Yrotation Xrotation
		JOINT RightLeg
		{
			OFFSET -2.542530 -6.985550 0.000000 
			CHANNELS 3 Zrotation Yrotation Xrotation
			JOINT RightFoot
			{
				OFFSET -2.568260 -7.056230 0.000000 
				CHANNELS 3 Zrotation Yrotation Xrotation
				JOINT RightToeBase
				{
					OFFSET -0.164730 -0.452590 2.363150 
					CHANNELS 3 Zrotation Yrotation Xrotation
					End Site
					{
						OFFSET 0.000000 0.000000 0.000000 
					}
				}
			}
		}
	}
	JOINT Spine
	{
		OFFSET 0.028270 2.035590 -0.193380 
		CHANNELS 3 Zrotation Yrotation Xrotation
		JOINT Spine1
		{
			OFFSET 0.056720 2.048850 -0.042750 
			CHANNELS 3 Zrotation Yrotation Xrotation
			JOINT Neck1
			{
				OFFSET -0.054170 1.746240 0.172020 
				CHANNELS 3 Zrotation Yrotation Xrotation
				JOINT Head
				{
					OFFSET 0.104070 1.761360 -0.123970 
					CHANNELS 3 Zrotation Yrotation Xrotation
					End Site
					{
						OFFSET 0.000000 0.000000 0.000000 
					}
				}
			}
			JOINT LeftArm
			{
				OFFSET 3.362410 1.200890 -0.311210 
				CHANNELS 3 Zrotation Yrotation Xrotation
				JOINT LeftForeArm
				{
					OFFSET 4.983000 -0.000000 -0.000000 
					CHANNELS 3 Zrotation Yrotation Xrotation
					JOINT LeftHand
					{
						OFFSET 3.483560 -0.000000 -0.000000 
						CHANNELS 3 Zrotation Yrotation Xrotation
						JOINT LeftHandIndex1
						{
							OFFSET 0.715260 -0.000000 -0.000000 
							CHANNELS 3 Zrotation Yrotation Xrotation
							End Site
							{
								OFFSET 0.000000 0.000000 0.000000 
							}
						}
					}
				}
			}
			JOINT RightArm
			{
				OFFSET -3.136600 1.374050 -0.404650 
				CHANNELS 3 Zrotation Yrotation Xrotation
				JOINT RightForeArm
				{
					OFFSET -5.241900 -0.000000 -0.000000 
					CHANNELS 3 Zrotation Yrotation Xrotation
					JOINT RightHand
					{
						OFFSET -3.444170 -0.000000 -0.000000 
						CHANNELS 3 Zrotation Yrotation Xrotation
						JOINT RightHandIndex1
						{
							OFFSET -0.622530 -0.000000 -0.000000 
							CHANNELS 3 Zrotation Yrotation Xrotation
							End Site
							{
								OFFSET 0.000000 0.000000 0.000000 
							}
						}
					}
				}
			}
		}
	}
}
MOTION
Frames: 12
Frame Time: 0.041667
14.802033 17.293988 -5.223040 17.332363 -65.581627 -5.175157 -19.138776 5.885207 -19.580126 3.263574 12.680726 40.741699 -2.543189 15.270286 -4.761393 0.190300 -2.809400 -7.748700 18.829006 5.094862 -42.343407 -2.050722 -15.941250 40.255764 1.864399 -21.053630 -21.278057 -2.413900 -9.679700 27.945500 0.697508 -3.427187 -3.429389 5.196408 -1.113306 -8.862935 10.063580 0.735548 14.785546 5.479800 -0.319400 3.841200 33.406664 -28.395697 -55.079356 23.689479 -33.351957 -7.855623 -0.013747 -1.450508 40.472284 -7.125000 0.000000 0.000000 -40.454325 14.914662 -64.966071 -19.155302 30.565388 -4.495297 0.881901 0.505553 -22.819284 7.125000 0.000000 0.000000 
14.683657 17.326607 -5.193770 18.394816 -66.323691 -6.142425 -19.039587 5.762792 -19.866737 3.723454 13.086407 42.201615 -2.371745 14.609127 -2.233909 0.114300 -2.179700 -6.002600 18.740734 5.371276 -41.905136 -2.008611 -15.843923 40.066531 2.027321 -21.757270 -21.199537 -2.263000 -9.393600 27.034400 0.620678 -3.229777 -3.378660 4.986845 -1.037340 -8.604329 10.163876 0.527975 14.915162 5.493900 -0.413700 3.934400 34.051977 -28.022572 -55.395489 23.867605 -33.661273 -7.981675 0.017759 -1.453489 39.998872 -7.125000 0.000000 0.000000 -39.948630 14.588251 -64.558732 -19.215008 30.549833 -4.511403 0.832106 0.527223 -22.650887 7.125000 0.000000 0.000000 
14.564740 17.353717 -5.173032 19.278364 -66.903970 -6.861136 -18.836543 5.562326 -20.414751 4.231709 13.541848 43.792303 -2.152838 13.930090 0.936379 0.033300 -1.178400 -3.239700 18.758037 5.395418 -41.575513 -1.958365 -15.745460 39.885388 1.958402 -21.642084 -21.775376 -2.387800 -9.630900 27.789600 0.625161 -3.236107 -3.355950 5.081769 -1.035351 -8.361304 10.212994 0.512901 15.100567 5.481700 -0.412400 4.059000 34.432528 -27.391547 -55.577020 23.951471 -33.835750 -8.049047 0.026432 -1.447751 39.529883 -7.125000 0.000000 0.000000 -39.700379 14.383579 -64.258826 -19.103912 30.330929 -4.440083 0.811335 0.562286 -22.736936 7.125000 0.000000 0.000000 
14.447876 17.366786 -5.158883 19.463380 -67.590765 -6.947176 -18.312299 5.504902 -21.190433 4.792481 14.023506 45.465309 -1.859858 13.288255 4.936332 0.027500 -1.070900 -2.943900 19.174651 5.459570 -41.291436 -1.916701 -15.653678 39.727770 1.900188 -21.330176 -21.636143 -2.425600 -9.701400 28.015200 0.705258 -3.217580 -3.351031 5.347024 -1.010118 -8.218956 10.186874 0.551244 15.289085 5.481900 -0.404800 4.172900 34.508299 -26.818501 -55.945545 23.997725 -33.910984 -8.082951 0.010924 -1.434956 39.464129 -7.125000 0.000000 0.000000 -39.662600 14.220345 -63.959695 -18.942340 30.094388 -4.351960 0.823037 0.570677 -22.955086 7.125000 0.000000 0.000000 
14.330903 17.386983 -5.139442 19.264533 -68.224629 -6.847656 -17.627001 5.345294 -21.889351 5.360352 14.496931 47.166442 -1.511292 12.667517 8.732890 0.062000 1.606000 4.418000 19.749915 5.326389 -40.804118 -1.898023 -15.528898 39.578890 2.020093 -21.508047 -20.704771 -2.174400 -9.220200 26.486700 0.732990 -3.069261 -3.331534 5.313801 -0.945161 -8.185036 10.113395 0.405170 15.358498 5.442300 -0.481200 4.221100 34.902705 -26.625336 -56.834858 23.943666 -33.930556 -8.060806 -0.000062 -1.424353 39.771156 -7.125000 0.000000 0.000000 -39.478624 13.864893 -63.559122 -18.744206 29.802723 -4.248537 0.834225 0.558375 -23.033820 7.125000 0.000000 0.000000 
14.209502 17.412473 -5.122377 18.890596 -68.590804 -6.700406 -16.873338 4.854431 -22.464014 5.903983 14.967044 48.845548 -1.295290 12.837287 11.323277 1.145100 6.795000 19.109500 20.309476 4.897336 -40.176798 -1.886899 -15.375942 39.438949 2.128888 -21.751157 -20.130570 -1.916500 -8.690000 24.830200 0.774337 -3.128100 -3.333431 5.324940 -0.973157 -8.282763 10.087446 0.406616 15.405859 5.406300 -0.483900 4.217400 35.125625 -26.216635 -57.281148 23.927664 -33.971384 -8.062597 -0.003608 -1.422145 40.144083 -7.125000 0.000000 0.000000 -39.250659 13.772479 -63.473516 -18.494452 29.394311 -4.109323 0.849182 0.556243 -23.077216 7.125000 0.000000 0.000000 
14.090262 17.433426 -5.116976 19.132584 -68.806879 -7.141305 -16.389820 4.360395 -23.136673 6.417672 15.435982 50.502647 -1.194300 13.416221 12.712793 1.978600 8.821400 25.238200 20.450614 4.640021 -39.539402 -1.871221 -15.230614 39.296264 2.080813 -21.509365 -20.249611 -1.978400 -8.820900 25.236700 0.792660 -3.104321 -3.344640 5.491116 -0.930990 -8.453422 10.148340 0.359775 15.401713 5.472000 -0.531800 4.171800 35.279223 -26.054852 -57.978856 23.983433 -34.059243 -8.100803 -0.012761 -1.415565 40.799962 -7.125000 0.000000 0.000000 -38.982567 13.414133 -63.272747 -18.256828 28.971581 -3.963546 0.879595 0.575881 -22.943857 7.125000 0.000000 0.000000 
13.978258 17.450168 -5.114600 19.121424 -68.952675 -7.280759 -15.917274 3.915677 -24.047501 6.936200 15.910964 52.144164 -1.030027 13.879991 14.388211 1.648700 8.092400 22.994900 20.604086 4.437682 -39.038631 -1.865547 -15.122988 39.225089 1.914175 -20.844011 -20.641355 -2.292000 -9.449400 27.211600 0.792886 -2.954515 -3.351917 5.525188 -0.837827 -8.645313 10.147741 0.194863 15.298730 5.506500 -0.635100 4.068200 35.604429 -26.173764 -59.106197 24.154371 -34.285444 -8.209123 -0.012517 -1.412287 41.504413 -7.125000 0.000000 0.000000 -38.680000 12.888522 -63.265010 -18.046161 28.580316 -3.827509 0.922660 0.586742 -22.236645 7.125000 0.000000 0.000000 
13.864634 17.459132 -5.112440 17.858989 -68.959926 -6.170899 -15.084837 3.468990 -25.161682 7.464997 16.384349 53.747346 -0.720358 13.826533 16.727180 1.308000 7.244700 20.442200 21.327136 3.971870 -38.712110 -1.880924 -15.052888 39.278214 1.723732 -20.113682 -21.033835 -2.583100 -9.987400 28.936000 0.864749 -2.934334 -3.375374 5.554215 -0.827939 -8.802349 10.045788 0.103702 15.316792 5.445600 -0.685300 4.060600 35.888966 -26.116357 -60.085992 24.308025 -34.496004 -8.313368 0.000369 -1.418767 42.070493 -7.125000 0.000000 0.000000 -38.414268 12.606675 -63.767363 -17.786417 28.121350 -3.677214 0.942728 0.606354 -21.289219 7.125000 0.000000 0.000000 
13.751550 17.458592 -5.108336 16.721650 -68.872890 -5.223228 -14.396402 3.116949 -26.310867 7.976505 16.852738 55.363996 -0.565772 13.908512 17.718395 1.604700 7.989000 22.680800 22.045144 3.400447 -38.400733 -1.921471 -14.993070 39.376864 1.700294 -19.918184 -20.833394 -2.473000 -9.788700 28.295200 0.902168 -2.883685 -3.397185 5.482076 -0.814660 -8.919060 9.850011 -0.069950 15.544480 5.333300 -0.772300 4.235000 36.308349 -26.057159 -61.059805 24.330766 -34.590267 -8.340797 0.018054 -1.416701 42.321144 -7.125000 0.000000 0.000000 -38.006645 12.067688 -63.859807 -17.503561 27.614580 -3.524589 0.934923 0.636356 -20.755929 7.125000 0.000000 0.000000 
13.639329 17.462373 -5.102719 16.403934 -68.918997 -5.140165 -14.072783 3.022047 -27.338447 8.429732 17.281106 56.894585 -0.772447 14.702541 16.285033 2.304100 9.472700 27.285500 22.453326 2.931090 -37.987236 -1.973259 -14.926793 39.466664 1.749786 -19.926549 -20.338710 -2.113900 -9.099500 26.106900 0.905909 -2.813480 -3.395966 5.461916 -0.778111 -9.012529 9.759518 -0.103203 15.775039 5.337500 -0.817700 4.368700 36.618038 -25.909894 -61.871054 24.387117 -34.695708 -8.382658 0.034497 -1.411998 42.256630 -7.125000 0.000000 0.000000 -37.577912 11.535259 -63.754326 -17.356227 27.299547 -3.434510 0.944162 0.631102 -20.507016 7.125000 0.000000 0.000000 
13.525813 17.455352 -5.101855 15.772372 -69.148701 -4.797461 -13.653817 3.233611 -28.382200 8.812044 17.657107 58.221906 -1.068764 15.210951 13.869111 2.272500 9.412000 27.092800 22.916742 2.875109 -37.453850 -2.034018 -14.891780 39.643787 1.790439 -20.090538 -20.194024 -1.805200 -8.447900 24.083000 0.945296 -2.712581 -3.377030 5.571608 -0.716427 -9.095209 9.801845 0.022556 15.864246 5.419100 -0.790600 4.363600 36.811166 -25.812009 -62.797780 24.492636 -34.834962 -8.453509 0.050561 -1.419012 42.241752 -7.125000 0.000000 0.000000 -37.243390 11.214069 -64.172249 -17.205223 26.975388 -3.336863 0.973804 0.627202 -19.970076 7.125000 0.000000 0.000000 
